<svg id="Vector_Smart_Object_Double_Click_to_Edit_" data-name="Vector Smart Object (Double Click to Edit)" xmlns="http://www.w3.org/2000/svg" width="101.969" height="103.704" viewBox="0 0 101.969 103.704">
  <g id="Group_6" data-name="Group 6" transform="translate(0 0)">
    <path id="Path_88" data-name="Path 88" d="M45.585,95.052c8.279,13,26.286,18.788,40.6,13.058s23.336-22.34,20.341-37.452a34.777,34.777,0,0,0-21.9-25.33c-11.84-4.307-28.521-2.29-35.849,8.778C40.639,66.4,37.169,81.839,45.585,95.052Z" transform="translate(-24.386 -25.881)" fill="#6e3dcc"/>
    <path id="Path_89" data-name="Path 89" d="M110.765,80.941A34.531,34.531,0,0,0,97.634,60.4a32.449,32.449,0,0,1,2.826,8.2c3,15.112-6.025,31.722-20.339,37.452-10.559,4.226-23.121,2.18-32.312-4.4a31.8,31.8,0,0,0,2.015,3.679c8.279,13,26.286,18.788,40.6,13.058S113.76,96.052,110.765,80.941Z" transform="translate(-28.625 -36.164)" fill="#4b2fa5"/>
    <path id="Path_90" data-name="Path 90" d="M153.2,41.467c5.224,3.948,15.107-14.809,15.107-14.809l3.524,2.639S156.58,44.038,161.84,47.938" transform="translate(-91.726 -15.961)" fill="#6e3dcc"/>
    <path id="Path_91" data-name="Path 91" d="M192.292,26c1.109-4.78-7.213-9.436-8.308-4.169C182.925,26.924,191.007,31.533,192.292,26Z" transform="translate(-110.103 -11.675)" fill="#6e3dcc"/>
    <path id="Path_92" data-name="Path 92" d="M190.178,22.354c-.928-1.329-3.912-.32-2.861,1.113C188.334,24.853,191.253,23.892,190.178,22.354Z" transform="translate(-112.024 -13.013)" fill="#9472e8"/>
    <path id="Path_93" data-name="Path 93" d="M191.93,28.176a4.027,4.027,0,0,1-.1.865c-1.019,4.39-6.314,2.394-7.931-1.161.105,4.643,7.2,8.294,8.4,3.137A4.288,4.288,0,0,0,191.93,28.176Z" transform="translate(-110.11 -16.693)" fill="#4b2fa5"/>
    <path id="Path_94" data-name="Path 94" d="M193.715,121.855c-.595,6.517,20.568,4.982,20.568,4.982l-.379,4.384s-20.587-5.137-21.119,1.386" transform="translate(-115.431 -72.961)" fill="#4b2fa5"/>
    <path id="Path_95" data-name="Path 95" d="M239.677,136.751c4.649-1.587,4.2-11.1-.849-9.25C233.939,129.3,234.3,138.587,239.677,136.751Z" transform="translate(-140.938 -76.199)" fill="#4b2fa5"/>
    <path id="Path_96" data-name="Path 96" d="M247.482,132.153c.639-1.49-1.8-3.486-2.459-1.838C244.382,131.91,246.742,133.878,247.482,132.153Z" transform="translate(-146.642 -77.655)" fill="#9472e8"/>
    <path id="Path_97" data-name="Path 97" d="M241.9,135.994a3.941,3.941,0,0,1-.788.372c-4.269,1.457-5.371-4.087-3.205-7.338-3.89,2.545-3.24,10.492,1.774,8.781A4.3,4.3,0,0,0,241.9,135.994Z" transform="translate(-140.94 -77.255)" fill="#371ca5"/>
    <path id="Path_98" data-name="Path 98" d="M160.221,177.626c-4.619,2.216,4.905,15.8,4.905,15.8l-3.1,1.5s-4.809-15.871-9.407-13.61" transform="translate(-91.382 -106.354)" fill="#4b2fa5"/>
    <path id="Path_99" data-name="Path 99" d="M171,215.863c2.933,2.483,9.153-1.636,5.878-4.281C173.707,209.023,167.6,212.99,171,215.863Z" transform="translate(-101.788 -126.192)" fill="#4b2fa5"/>
    <path id="Path_100" data-name="Path 100" d="M183.339,217.355c1.259-.17,1.623-2.6.25-2.388C182.26,215.178,181.884,217.551,183.339,217.355Z" transform="translate(-109.216 -128.704)" fill="#9472e8"/>
    <path id="Path_101" data-name="Path 101" d="M173.108,216.626a3.079,3.079,0,0,1-.566-.38c-2.692-2.278.592-5.243,3.648-5.1-3.271-1.588-8.354,2.036-5.192,4.714A3.367,3.367,0,0,0,173.108,216.626Z" transform="translate(-101.788 -126.195)" fill="#371ca5"/>
    <path id="Path_102" data-name="Path 102" d="M124.878,197.969c-6.548.165-2.571,20.987-2.571,20.987l-4.4.131s2.723-21.022-3.823-20.794" transform="translate(-68.306 -118.534)" fill="#4b2fa5"/>
    <path id="Path_103" data-name="Path 103" d="M117.39,244.862c2.115,4.429,11.529,2.886,9.1-1.914C124.139,238.306,114.942,239.735,117.39,244.862Z" transform="translate(-70.042 -143.781)" fill="#4b2fa5"/>
    <path id="Path_104" data-name="Path 104" d="M119.451,246.856a3.908,3.908,0,0,1-.461-.737c-1.944-4.068,3.442-5.805,6.926-4.031-2.981-3.565-10.807-2-8.525,2.778A4.293,4.293,0,0,0,119.451,246.856Z" transform="translate(-70.041 -143.784)" fill="#371ca5"/>
    <path id="Path_105" data-name="Path 105" d="M81.162,28.314c6.06-2.486-5.085-20.525-5.085-20.525L80.144,6.1S85.1,26.71,91.136,24.167" transform="translate(-45.551 -3.652)" fill="#6e3dcc"/>
    <path id="Path_106" data-name="Path 106" d="M77.729,1.154c-3.558-3.385-11.8,1.407-7.819,5.028C73.763,9.682,81.846,5.072,77.729,1.154Z" transform="translate(-41.222 0)" fill="#6e3dcc"/>
    <path id="Path_107" data-name="Path 107" d="M72.847,5.2c-1.618.124-2.265,3.2-.495,3.027C74.064,8.059,74.721,5.059,72.847,5.2Z" transform="translate(-42.687 -3.111)" fill="#9472e8"/>
    <path id="Path_108" data-name="Path 108" d="M77.937.065a3.927,3.927,0,0,1,.694.525C81.9,3.7,77.485,7.239,73.6,6.822c4.056,2.269,10.811-1.978,6.975-5.63A4.3,4.3,0,0,0,77.937.065Z" transform="translate(-44.067 -0.039)" fill="#4b2fa5"/>
    <path id="Path_109" data-name="Path 109" d="M25.992,95.454c2.175-6.172-18.718-9.868-18.718-9.868L8.716,81.43s18.7,10.021,20.816,3.829" transform="translate(-4.355 -48.756)" fill="#6e3dcc"/>
    <path id="Path_110" data-name="Path 110" d="M4.668,75.7c-4.9.4-6.8,9.736-1.448,9.175C8.4,84.336,10.336,75.241,4.668,75.7Z" transform="translate(0 -45.317)" fill="#6e3dcc"/>
    <path id="Path_111" data-name="Path 111" d="M2.44,88.385c-.985,1.289.885,3.821,1.932,2.385C5.385,89.38,3.581,86.895,2.44,88.385Z" transform="translate(-1.295 -52.645)" fill="#9472e8"/>
    <path id="Path_112" data-name="Path 112" d="M5.165,76.918a4.021,4.021,0,0,1,.854-.168c4.5-.367,4.2,5.28,1.307,7.9,4.395-1.514,5.716-9.378.435-8.947A4.3,4.3,0,0,0,5.165,76.918Z" transform="translate(-3.092 -45.317)" fill="#4b2fa5"/>
    <path id="Path_113" data-name="Path 113" d="M47.47,168.83c-3.832-5.307-18.793,9.726-18.793,9.726L26.085,175s18.907-9.622,15.024-14.893" transform="translate(-15.618 -95.865)" fill="#4b2fa5"/>
    <path id="Path_114" data-name="Path 114" d="M21.025,190.789c-2.466,4.245,4.123,11.136,6.717,6.423C30.252,192.652,23.878,185.876,21.025,190.789Z" transform="translate(-12.264 -113.211)" fill="#4b2fa5"/>
    <path id="Path_115" data-name="Path 115" d="M27.688,206.081c.5,1.544,3.646,1.454,3.063-.225C30.186,204.233,27.112,204.3,27.688,206.081Z" transform="translate(-16.535 -122.557)" fill="#9472e8"/>
    <path id="Path_116" data-name="Path 116" d="M20.547,193.611a3.919,3.919,0,0,1,.35-.8c2.264-3.9,6.739-.437,7.239,3.436,1.264-4.47-4.447-10.041-7.106-5.462A4.286,4.286,0,0,0,20.547,193.611Z" transform="translate(-12.269 -113.21)" fill="#371ca5"/>
    <path id="Path_117" data-name="Path 117" d="M126.646,29.9c4.88,1.091,5.8-15.067,5.8-15.067l3.284.719s-5.919,15.063-1.028,16.109" transform="translate(-75.83 -8.884)" fill="#6e3dcc"/>
    <path id="Path_118" data-name="Path 118" d="M142.983,12.184c-.745-3.672-8-4.273-7.093-.269C136.768,15.789,143.844,16.435,142.983,12.184Z" transform="translate(-81.317 -5.486)" fill="#6e3dcc"/>
    <path id="Path_119" data-name="Path 119" d="M139.734,11.036c-1.066-.629-2.82,1.016-1.635,1.679C139.245,13.356,140.969,11.766,139.734,11.036Z" transform="translate(-82.45 -6.524)" fill="#9472e8"/>
    <path id="Path_120" data-name="Path 120" d="M142.335,12.066a2.918,2.918,0,0,1,.2.632c.685,3.372-3.627,3.661-5.878,1.7,1.547,3.193,7.634,3.484,6.831-.477A3.286,3.286,0,0,0,142.335,12.066Z" transform="translate(-81.826 -7.225)" fill="#4b2fa5"/>
    <path id="Path_121" data-name="Path 121" d="M183.38,79.384c2.738,4.182,14.673-6.76,14.673-6.76l1.854,2.8S185.15,82.1,187.926,86.258" transform="translate(-109.799 -43.484)" fill="#4b2fa5"/>
    <path id="Path_122" data-name="Path 122" d="M219.586,73.372c2.029-3.152-2.755-8.638-4.9-5.133C212.615,71.628,217.238,77.02,219.586,73.372Z" transform="translate(-128.233 -40.182)" fill="#4b2fa5"/>
    <path id="Path_123" data-name="Path 123" d="M220.087,69.857c-.325-1.194-2.73-1.235-2.343.065C218.116,71.18,220.463,71.24,220.087,69.857Z" transform="translate(-130.349 -41.287)" fill="#9472e8"/>
    <path id="Path_124" data-name="Path 124" d="M220.056,73.992a2.988,2.988,0,0,1-.3.6c-1.863,2.893-5.154.1-5.4-2.874-1.12,3.366,3.041,7.813,5.229,4.415A3.272,3.272,0,0,0,220.056,73.992Z" transform="translate(-128.235 -42.938)" fill="#371ca5"/>
    <path id="Path_125" data-name="Path 125" d="M86.76,191.826c-4.124-2.827-11,11.828-11,11.828l-2.781-1.887s11.106-11.782,6.955-14.57" transform="translate(-43.698 -112.084)" fill="#4b2fa5"/>
    <path id="Path_126" data-name="Path 126" d="M68.853,218.8c-.677,3.685,5.835,6.94,6.484,2.886C75.964,217.763,69.636,214.533,68.853,218.8Z" transform="translate(-41.196 -129.797)" fill="#4b2fa5"/>
    <path id="Path_127" data-name="Path 127" d="M76.732,228.821c.755.981,2.994.105,2.143-.951C78.049,226.85,75.857,227.686,76.732,228.821Z" transform="translate(-45.822 -136.162)" fill="#9472e8"/>
    <path id="Path_128" data-name="Path 128" d="M69.235,220.952a3,3,0,0,1,.046-.662c.622-3.385,4.731-2.049,6.09.6-.246-3.537-5.786-6.07-6.517-2.1A3.272,3.272,0,0,0,69.235,220.952Z" transform="translate(-41.197 -129.797)" fill="#371ca5"/>
    <path id="Path_129" data-name="Path 129" d="M183.659,161.862c-2.156,4.509,13.4,9.017,13.4,9.017l-1.436,3.038s-13.373-9.133-15.487-4.6" transform="translate(-107.858 -96.915)" fill="#4b2fa5"/>
    <path id="Path_130" data-name="Path 130" d="M214.15,185.954c3.75.1,5.96-6.835,1.849-6.847C212.022,179.1,209.809,185.842,214.15,185.954Z" transform="translate(-126.802 -107.24)" fill="#4b2fa5"/>
    <path id="Path_131" data-name="Path 131" d="M223.083,183.421c.853-.9-.361-2.972-1.272-1.966C220.928,182.426,222.1,184.46,223.083,183.421Z" transform="translate(-132.622 -108.485)" fill="#9472e8"/>
    <path id="Path_132" data-name="Path 132" d="M216.22,185.38a3.084,3.084,0,0,1-.661.057c-3.443-.088-2.761-4.35-.346-6.1-3.46.791-5.106,6.652-1.062,6.756A3.279,3.279,0,0,0,216.22,185.38Z" transform="translate(-126.803 -107.376)" fill="#371ca5"/>
    <path id="Path_133" data-name="Path 133" d="M47.24,59.912c3.484-3.584-9.817-12.821-9.817-12.821l2.33-2.42s9.754,12.92,13.2,9.3" transform="translate(-22.407 -26.747)" fill="#6e3dcc"/>
    <path id="Path_134" data-name="Path 134" d="M37.413,40.689c-3.521-1.289-7.832,4.576-3.941,5.9C37.237,47.865,41.49,42.179,37.413,40.689Z" transform="translate(-19.121 -24.252)" fill="#6e3dcc"/>
    <path id="Path_135" data-name="Path 135" d="M34.314,47.229c-1.095.577-.609,2.931.577,2.269C36.037,48.858,35.582,46.559,34.314,47.229Z" transform="translate(-20.179 -28.206)" fill="#9472e8"/>
    <path id="Path_136" data-name="Path 136" d="M38.674,40.7a2.921,2.921,0,0,1,.646.156c3.235,1.182,1.225,5-1.623,5.894,3.532.355,6.966-4.675,3.166-6.063A3.266,3.266,0,0,0,38.674,40.7Z" transform="translate(-22.571 -24.254)" fill="#4b2fa5"/>
    <path id="Path_137" data-name="Path 137" d="M31.051,141.182c-.612-4.959-16.154-.394-16.154-.394l-.427-3.332s16.192.507,15.533-4.446" transform="translate(-8.664 -79.64)" fill="#6e3dcc"/>
    <path id="Path_138" data-name="Path 138" d="M10.585,139.275c-3.213,1.934-1.34,8.964,2.131,6.764C16.074,143.91,14.3,137.034,10.585,139.275Z" transform="translate(-5.347 -83.126)" fill="#6e3dcc"/>
    <path id="Path_139" data-name="Path 139" d="M11.562,151.054c-.236,1.216,1.9,2.312,2.132.974C13.914,150.735,11.835,149.648,11.562,151.054Z" transform="translate(-6.912 -90.049)" fill="#9472e8"/>
    <path id="Path_140" data-name="Path 140" d="M9.662,140.986a2.963,2.963,0,0,1,.527-.4c2.949-1.778,4.67,2.182,3.58,4.957,2.489-2.527.719-8.351-2.745-6.264A3.27,3.27,0,0,0,9.662,140.986Z" transform="translate(-5.785 -83.126)" fill="#4b2fa5"/>
    <path id="Path_141" data-name="Path 141" d="M68.519,91.913a3.166,3.166,0,0,0-1.878.027,2.308,2.308,0,0,0-1.26,1.475,4.23,4.23,0,0,0-.055,1.982,7.435,7.435,0,0,0,4.709,5.57c2.511.9,6.243-.719,5.246-3.882C74.457,94.471,71.011,92.469,68.519,91.913Z" transform="translate(-39.06 -54.955)" fill="#9472e8"/>
    <path id="Path_142" data-name="Path 142" d="M145.015,118.707a4.216,4.216,0,0,0,.612-2.429,3.076,3.076,0,0,0-1.47-2.128,5.632,5.632,0,0,0-2.538-.753,9.925,9.925,0,0,0-8.8,4.147c-2.027,2.922-1.22,8.285,3.205,8.089C139.674,125.471,143.442,121.723,145.015,118.707Z" transform="translate(-78.892 -67.878)" fill="#9472e8"/>
    <path id="Path_143" data-name="Path 143" d="M70.987,135.087a4.908,4.908,0,0,0-2.915-.082,3.585,3.585,0,0,0-2.049,2.2,6.547,6.547,0,0,0-.215,3.07,11.53,11.53,0,0,0,6.936,8.943c3.835,1.564,9.728-.706,8.389-5.676C80.025,139.44,74.814,136.112,70.987,135.087Z" transform="translate(-39.352 -80.721)" fill="#9472e8"/>
    <path id="Path_144" data-name="Path 144" d="M96.6,119.1a2.635,2.635,0,0,0-.966,1.234,1.926,1.926,0,0,0,.3,1.59A3.538,3.538,0,0,0,97.2,123a6.217,6.217,0,0,0,6.091-.14c1.9-1.159,2.8-4.432.221-5.441C101.374,116.586,98.268,117.776,96.6,119.1Z" transform="translate(-57.223 -70.139)" fill="#bd61f2"/>
    <path id="Path_145" data-name="Path 145" d="M114.96,153.909a2.413,2.413,0,0,0,.544,1.328,1.766,1.766,0,0,0,1.4.484,3.25,3.25,0,0,0,1.427-.515,5.677,5.677,0,0,0,2.652-4.9c-.059-2.036-2.255-4.237-4.23-2.644C115.124,148.976,114.66,151.983,114.96,153.909Z" transform="translate(-68.781 -88.085)" fill="#bd61f2"/>
    <path id="Path_146" data-name="Path 146" d="M99.086,63.492a5.658,5.658,0,0,0-3.411,1.649,5.39,5.39,0,0,0-.987,4.173,10.943,10.943,0,0,0,1.666,4.225c3.051,4.9,8.416,7.963,13.565,7.748,5.392-.225,10.77-6.8,6.129-12.626C112.214,63.852,104.135,62.554,99.086,63.492Z" transform="translate(-56.657 -37.846)" fill="#bd61f2"/>
    <g id="Group_4" data-name="Group 4" transform="translate(24.804 64.243)">
      <path id="Path_147" data-name="Path 147" d="M61.818,164.626a36.066,36.066,0,0,0,5.449,2.012l-4.763-6.53C63.469,161.418,63.026,163,61.818,164.626Z" transform="translate(-61.818 -160.108)" fill="#6e3dcc"/>
    </g>
    <g id="Group_5" data-name="Group 5" transform="translate(16.659 18.009)">
      <path id="Path_148" data-name="Path 148" d="M173.107,63.157a19.421,19.421,0,0,0-1.108,3.4,4.553,4.553,0,0,0-.031,1.724,3.061,3.061,0,0,0,.3.808,3.368,3.368,0,0,0,.549.7,2.672,2.672,0,0,1-.707-.594,2.741,2.741,0,0,1-.439-.837,3.632,3.632,0,0,1-.142-.936,5.3,5.3,0,0,1,.083-.934,7.466,7.466,0,0,1,.573-1.754A9.537,9.537,0,0,1,173.107,63.157Z" transform="translate(-119.364 -55.824)" fill="#9472e8"/>
      <path id="Path_149" data-name="Path 149" d="M153.2,60.348a2.932,2.932,0,0,0,1.694.393,4.609,4.609,0,0,0,1.653-.519,11.769,11.769,0,0,0,1.514-.938c.466-.377.945-.743,1.45-1.092-.4.458-.819.906-1.261,1.33a7.607,7.607,0,0,1-1.528,1.047,4.01,4.01,0,0,1-1.817.473,2.423,2.423,0,0,1-1.7-.694Z" transform="translate(-108.385 -52.851)" fill="#9472e8"/>
      <path id="Path_150" data-name="Path 150" d="M197.612,140.721c-.512.137-1.017.271-1.513.416a9.089,9.089,0,0,0-1.432.545,3.9,3.9,0,0,0-1.2.874,3,3,0,0,0-.686,1.346,2.355,2.355,0,0,1,.448-1.536,3.4,3.4,0,0,1,1.268-1.033A6.824,6.824,0,0,1,197.612,140.721Z" transform="translate(-132.082 -102.264)" fill="#9472e8"/>
      <path id="Path_151" data-name="Path 151" d="M195.009,121.855a2.978,2.978,0,0,0,.47,1.489,3.964,3.964,0,0,0,1.1,1.082,9.43,9.43,0,0,0,1.38.784c.484.228.98.445,1.481.666a7.937,7.937,0,0,1-1.6-.386,6.218,6.218,0,0,1-1.487-.745,3.484,3.484,0,0,1-1.135-1.25A2.384,2.384,0,0,1,195.009,121.855Z" transform="translate(-133.384 -90.969)" fill="#9472e8"/>
      <path id="Path_152" data-name="Path 152" d="M101.594,44.969a14.766,14.766,0,0,0,2.141,1.938,3.7,3.7,0,0,0,1.263.564,3.094,3.094,0,0,0,1.416-.031,2.31,2.31,0,0,1-1.462.332,3.19,3.19,0,0,1-1.433-.541A6.054,6.054,0,0,1,101.594,44.969Z" transform="translate(-77.488 -44.934)" fill="#9472e8"/>
      <path id="Path_153" data-name="Path 153" d="M88.749,52.992a3.013,3.013,0,0,0,1.091-1.083,3.949,3.949,0,0,0,.461-1.441,9.111,9.111,0,0,0,.07-1.558c-.016-.525-.047-1.056-.077-1.594a7,7,0,0,1,.392,3.207,3.428,3.428,0,0,1-.594,1.551A2.372,2.372,0,0,1,88.749,52.992Z" transform="translate(-69.798 -46.339)" fill="#9472e8"/>
      <path id="Path_154" data-name="Path 154" d="M47.689,92.783c.578.018,1.148.038,1.714.042a10.086,10.086,0,0,0,1.675-.113,4.18,4.18,0,0,0,1.544-.523,2.958,2.958,0,0,0,1.108-1.217,2.43,2.43,0,0,1-.936,1.468,3.662,3.662,0,0,1-1.653.655,6.774,6.774,0,0,1-1.754.033A8.965,8.965,0,0,1,47.689,92.783Z" transform="translate(-45.213 -72.478)" fill="#9472e8"/>
      <path id="Path_155" data-name="Path 155" d="M48.534,108.688a2.948,2.948,0,0,0-.115-1.637,4.129,4.129,0,0,0-.887-1.365,10.053,10.053,0,0,0-1.243-1.124c-.445-.346-.9-.684-1.368-1.029a8.745,8.745,0,0,1,1.545.782,6.747,6.747,0,0,1,1.354,1.108,3.657,3.657,0,0,1,.888,1.537A2.43,2.43,0,0,1,48.534,108.688Z" transform="translate(-43.556 -79.999)" fill="#9472e8"/>
      <path id="Path_156" data-name="Path 156" d="M68.506,179.888a2.911,2.911,0,0,0-1.669-.91,5.057,5.057,0,0,0-1.906.117,23.344,23.344,0,0,0-3.714,1.342,10.3,10.3,0,0,1,3.629-1.722,4.472,4.472,0,0,1,2.054-.033A2.545,2.545,0,0,1,68.506,179.888Z" transform="translate(-53.313 -124.931)" fill="#9472e8"/>
      <path id="Path_157" data-name="Path 157" d="M141.728,45.967a17.678,17.678,0,0,0,.418,2.507,3.246,3.246,0,0,0,.521,1.09,2.388,2.388,0,0,0,.985.74,1.787,1.787,0,0,1-1.212-.538,2.715,2.715,0,0,1-.668-1.181,4.788,4.788,0,0,1-.18-1.316A5.749,5.749,0,0,1,141.728,45.967Z" transform="translate(-101.438 -45.531)" fill="#9472e8"/>
      <path id="Path_158" data-name="Path 158" d="M126.646,47.893a2.394,2.394,0,0,0,1.174-.248,3.161,3.161,0,0,0,.914-.737,16.919,16.919,0,0,0,1.419-2.026,5.319,5.319,0,0,1-.419,1.206,4.607,4.607,0,0,1-.709,1.082,2.652,2.652,0,0,1-1.087.754A1.774,1.774,0,0,1,126.646,47.893Z" transform="translate(-92.489 -44.881)" fill="#9472e8"/>
      <path id="Path_159" data-name="Path 159" d="M195.88,94.945a19.051,19.051,0,0,0-1.621,2.177,3.447,3.447,0,0,0-.462,1.207,2.342,2.342,0,0,0,.185,1.294,1.832,1.832,0,0,1-.487-1.32,2.929,2.929,0,0,1,.426-1.375,5.345,5.345,0,0,1,.872-1.111A6.369,6.369,0,0,1,195.88,94.945Z" transform="translate(-132.514 -74.857)" fill="#9472e8"/>
      <path id="Path_160" data-name="Path 160" d="M183.38,89.393a2.281,2.281,0,0,0,1.194.7,3.687,3.687,0,0,0,1.377,0,20.905,20.905,0,0,0,2.783-.757,6.759,6.759,0,0,1-2.725,1.142,3.167,3.167,0,0,1-1.521-.1A1.88,1.88,0,0,1,183.38,89.393Z" transform="translate(-126.458 -71.502)" fill="#9472e8"/>
      <path id="Path_161" data-name="Path 161" d="M88.821,193.432a25.861,25.861,0,0,0,1.17-3.181,4.755,4.755,0,0,0,.169-1.623,2.254,2.254,0,0,0-.739-1.432,2,2,0,0,1,1.04,1.382,4.041,4.041,0,0,1-.092,1.767A8.948,8.948,0,0,1,88.821,193.432Z" transform="translate(-69.84 -130.093)" fill="#9472e8"/>
      <path id="Path_162" data-name="Path 162" d="M99.449,198a2.267,2.267,0,0,0-1.493-.179,4.25,4.25,0,0,0-1.367.641,23.8,23.8,0,0,0-2.415,2.018,7.857,7.857,0,0,1,2.2-2.342,3.6,3.6,0,0,1,1.534-.615A1.947,1.947,0,0,1,99.449,198Z" transform="translate(-73.046 -136.266)" fill="#9472e8"/>
      <path id="Path_163" data-name="Path 163" d="M158.351,190.946a31.908,31.908,0,0,0-2.38-3.187,5.924,5.924,0,0,0-1.48-1.235,2.288,2.288,0,0,0-1.871-.166,2.032,2.032,0,0,1,.972-.307,2.241,2.241,0,0,1,.526.039,3.511,3.511,0,0,1,.5.16,5.036,5.036,0,0,1,1.639,1.247A11.755,11.755,0,0,1,158.351,190.946Z" transform="translate(-108.041 -129.402)" fill="#9472e8"/>
      <path id="Path_164" data-name="Path 164" d="M169.407,177.626a2.274,2.274,0,0,0-1,1.486,5.463,5.463,0,0,0,.01,1.835,30.142,30.142,0,0,0,.922,3.678A10.765,10.765,0,0,1,168.028,181a4.692,4.692,0,0,1,.081-1.966A2.089,2.089,0,0,1,169.407,177.626Z" transform="translate(-117.227 -124.362)" fill="#9472e8"/>
      <path id="Path_165" data-name="Path 165" d="M117.868,203.446c-.191-.52-.38-1.034-.579-1.538a9.692,9.692,0,0,0-.706-1.444,4.021,4.021,0,0,0-1.025-1.177,2.987,2.987,0,0,0-1.478-.563,2.4,2.4,0,0,1,1.644.31,3.511,3.511,0,0,1,1.19,1.228A7.373,7.373,0,0,1,117.868,203.446Z" transform="translate(-84.965 -136.974)" fill="#9472e8"/>
      <path id="Path_166" data-name="Path 166" d="M135.788,197.947a2.99,2.99,0,0,0-1.427.64,3.964,3.964,0,0,0-.949,1.213,9.507,9.507,0,0,0-.618,1.462c-.171.507-.329,1.025-.492,1.548a7.947,7.947,0,0,1,.2-1.631,6.176,6.176,0,0,1,.569-1.563,3.483,3.483,0,0,1,1.112-1.272A2.4,2.4,0,0,1,135.788,197.947Z" transform="translate(-95.875 -136.52)" fill="#9472e8"/>
      <path id="Path_167" data-name="Path 167" d="M183.614,177.134a12.64,12.64,0,0,0-1.923.19,2.582,2.582,0,0,0-1.552.975,1.613,1.613,0,0,1,.521-.884,2.155,2.155,0,0,1,.944-.469,3.192,3.192,0,0,1,1.028-.055A3.438,3.438,0,0,1,183.614,177.134Z" transform="translate(-124.518 -123.911)" fill="#9472e8"/>
      <path id="Path_168" data-name="Path 168" d="M188.4,161.862a2.54,2.54,0,0,0-.039,1.066,2.945,2.945,0,0,0,.384.958,14.755,14.755,0,0,0,1.349,1.718,4.3,4.3,0,0,1-.939-.639,3.858,3.858,0,0,1-.745-.88,2.386,2.386,0,0,1-.352-1.125A1.692,1.692,0,0,1,188.4,161.862Z" transform="translate(-129.259 -114.923)" fill="#9472e8"/>
      <path id="Path_169" data-name="Path 169" d="M64.008,66.006a18.524,18.524,0,0,0,2.429,1.042,3.341,3.341,0,0,0,1.248.16,2.347,2.347,0,0,0,1.19-.459,1.817,1.817,0,0,1-1.144.759,2.845,2.845,0,0,1-1.4-.087,5.128,5.128,0,0,1-1.25-.576A6.134,6.134,0,0,1,64.008,66.006Z" transform="translate(-54.984 -57.53)" fill="#9472e8"/>
      <path id="Path_170" data-name="Path 170" d="M60.831,75.9a2.414,2.414,0,0,0,.4-1.121,3.134,3.134,0,0,0-.145-1.155,17.094,17.094,0,0,0-.967-2.254,5.277,5.277,0,0,1,.8.982,4.572,4.572,0,0,1,.543,1.164,2.627,2.627,0,0,1,.068,1.311A1.765,1.765,0,0,1,60.831,75.9Z" transform="translate(-52.657 -60.739)" fill="#9472e8"/>
      <path id="Path_171" data-name="Path 171" d="M41.518,136.606a23.841,23.841,0,0,0,2.939-1.237,4.339,4.339,0,0,0,1.215-.932,2.261,2.261,0,0,0,.526-1.427,1.945,1.945,0,0,1-.282,1.609,3.688,3.688,0,0,1-1.269,1.091A8.072,8.072,0,0,1,41.518,136.606Z" transform="translate(-41.518 -97.649)" fill="#9472e8"/>
      <path id="Path_172" data-name="Path 172" d="M47.858,149.761a2.265,2.265,0,0,0-.847-1.23,4.226,4.226,0,0,0-1.376-.6,23.411,23.411,0,0,0-3.094-.475,7.768,7.768,0,0,1,3.195.1,3.583,3.583,0,0,1,1.467.741A1.936,1.936,0,0,1,47.858,149.761Z" transform="translate(-42.13 -106.227)" fill="#9472e8"/>
      <path id="Path_173" data-name="Path 173" d="M55.933,167.137a24.91,24.91,0,0,0,2.609-3.223,5.427,5.427,0,0,0,.784-1.848,2.9,2.9,0,0,0-.345-1.958,2.581,2.581,0,0,1,.647,2,4.8,4.8,0,0,1-.755,2.012A11.245,11.245,0,0,1,55.933,167.137Z" transform="translate(-50.149 -113.874)" fill="#9472e8"/>
    </g>
    <path id="Path_174" data-name="Path 174" d="M132.456,251.327c1.556.462,3.26-2.186,1.543-2.653C132.339,248.224,130.656,250.792,132.456,251.327Z" transform="translate(-78.844 -148.862)" fill="#9472e8"/>
  </g>
</svg>
