<svg xmlns="http://www.w3.org/2000/svg" width="531.149" height="540.19" viewBox="0 0 531.149 540.19">
  <g id="virus" transform="translate(0 0)">
    <g id="Group_3" data-name="Group 3" transform="translate(0)">
      <path id="Path_1" data-name="Path 1" d="M237.45,495.121c43.127,67.7,136.921,97.863,211.485,68.017S570.49,446.768,554.888,368.055c-11.812-59.584-56.933-111.161-114.063-131.943-61.673-22.435-148.564-11.929-186.735,45.724C211.689,345.87,193.611,426.3,237.45,495.121Z" transform="translate(-127.028 -134.814)" fill="#6e3dcc"/>
      <path id="Path_2" data-name="Path 2" d="M576.968,421.617c-8.429-42.5-33.81-80.915-68.4-107a169.023,169.023,0,0,1,14.721,42.73c15.61,78.72-31.382,165.237-105.946,195.083-55,22.015-120.437,11.353-168.311-22.909a165.666,165.666,0,0,0,10.5,19.164c43.127,67.7,136.921,97.863,211.485,68.017S592.571,500.331,576.968,421.617Z" transform="translate(-149.109 -188.377)" fill="#4b2fa5"/>
      <path id="Path_3" data-name="Path 3" d="M797.985,216c27.212,20.566,78.693-77.142,78.693-77.142L895.034,152.6s-79.419,76.79-52.017,97.1" transform="translate(-477.794 -83.14)" fill="#6e3dcc"/>
      <path id="Path_4" data-name="Path 4" d="M1001.64,135.425c5.777-24.9-37.573-49.152-43.276-21.717C952.845,140.248,994.948,164.254,1001.64,135.425Z" transform="translate(-573.523 -60.816)" fill="#6e3dcc"/>
      <path id="Path_5" data-name="Path 5" d="M990.629,116.44c-4.835-6.923-20.377-1.666-14.9,5.8C981.02,129.46,996.23,124.454,990.629,116.44Z" transform="translate(-583.526 -67.783)" fill="#9472e8"/>
      <path id="Path_6" data-name="Path 6" d="M999.755,146.765a20.992,20.992,0,0,1-.522,4.5c-5.31,22.869-32.888,12.471-41.31-6.049.549,24.183,37.519,43.2,43.751,16.339A22.338,22.338,0,0,0,999.755,146.765Z" transform="translate(-573.557 -86.951)" fill="#4b2fa5"/>
      <path id="Path_7" data-name="Path 7" d="M1009.053,634.736c-3.1,33.944,107.139,25.951,107.139,25.951l-1.973,22.835s-107.234-26.757-110.008,7.221" transform="translate(-601.272 -380.049)" fill="#4b2fa5"/>
      <path id="Path_8" data-name="Path 8" d="M1248.465,712.33c24.215-8.264,21.9-57.843-4.421-48.183C1218.575,673.5,1220.433,721.9,1248.465,712.33Z" transform="translate(-734.141 -396.915)" fill="#4b2fa5"/>
      <path id="Path_9" data-name="Path 9" d="M1289.12,688.377c3.33-7.763-9.358-18.161-12.809-9.572C1272.975,687.11,1285.269,697.366,1289.12,688.377Z" transform="translate(-763.852 -404.501)" fill="#9472e8"/>
      <path id="Path_10" data-name="Path 10" d="M1260.03,708.384a20.531,20.531,0,0,1-4.1,1.937c-22.235,7.587-27.978-21.291-16.695-38.225-20.262,13.257-16.878,54.652,9.243,45.738A22.394,22.394,0,0,0,1260.03,708.384Z" transform="translate(-734.151 -402.418)" fill="#371ca5"/>
      <path id="Path_11" data-name="Path 11" d="M834.581,925.244c-24.059,11.543,25.551,82.283,25.551,82.283l-16.139,7.837s-25.049-82.669-49-70.9" transform="translate(-476.003 -553.991)" fill="#4b2fa5"/>
      <path id="Path_12" data-name="Path 12" d="M890.721,1124.419c15.278,12.931,47.677-8.522,30.616-22.3C904.832,1088.788,873.043,1109.455,890.721,1124.419Z" transform="translate(-530.21 -657.328)" fill="#4b2fa5"/>
      <path id="Path_13" data-name="Path 13" d="M955,1132.192c6.557-.887,8.456-13.568,1.3-12.437C949.382,1120.852,947.422,1133.215,955,1132.192Z" transform="translate(-568.901 -670.411)" fill="#9472e8"/>
      <path id="Path_14" data-name="Path 14" d="M901.713,1128.4a16.038,16.038,0,0,1-2.95-1.978c-14.023-11.868,3.085-27.313,19-26.54-17.041-8.271-43.514,10.608-27.043,24.556A17.537,17.537,0,0,0,901.713,1128.4Z" transform="translate(-530.21 -657.342)" fill="#371ca5"/>
      <path id="Path_15" data-name="Path 15" d="M650.484,1031.213c-34.108.86-13.392,109.318-13.392,109.318l-22.933.684s14.186-109.5-19.916-108.315" transform="translate(-355.803 -617.44)" fill="#4b2fa5"/>
      <path id="Path_16" data-name="Path 16" d="M611.481,1275.476c11.019,23.072,60.052,15.031,47.392-9.971C646.633,1241.322,598.726,1248.766,611.481,1275.476Z" transform="translate(-364.843 -748.95)" fill="#4b2fa5"/>
      <path id="Path_17" data-name="Path 17" d="M622.213,1285.86a20.35,20.35,0,0,1-2.4-3.841c-10.124-21.189,17.929-30.239,36.075-21-15.528-18.568-56.3-10.418-44.409,14.469A22.365,22.365,0,0,0,622.213,1285.86Z" transform="translate(-364.841 -748.963)" fill="#371ca5"/>
      <path id="Path_18" data-name="Path 18" d="M422.767,147.485C454.332,134.533,396.28,40.572,396.28,40.572l21.184-8.8s25.815,107.36,57.259,94.111" transform="translate(-237.273 -19.024)" fill="#6e3dcc"/>
      <path id="Path_19" data-name="Path 19" d="M404.885,6.009c-18.532-17.633-61.476,7.329-40.727,26.188C384.23,50.432,426.333,26.419,404.885,6.009Z" transform="translate(-214.726 0)" fill="#6e3dcc"/>
      <path id="Path_20" data-name="Path 20" d="M379.458,27.092c-8.429.644-11.8,16.684-2.577,15.77C385.8,41.981,389.216,26.353,379.458,27.092Z" transform="translate(-222.356 -16.206)" fill="#9472e8"/>
      <path id="Path_21" data-name="Path 21" d="M405.97.338a20.46,20.46,0,0,1,3.614,2.737c17.02,16.2-5.967,34.635-26.215,32.461,21.13,11.821,56.316-10.3,36.332-29.324A22.41,22.41,0,0,0,405.97.338Z" transform="translate(-229.542 -0.202)" fill="#4b2fa5"/>
      <path id="Path_22" data-name="Path 22" d="M135.393,497.215c11.331-32.149-97.5-51.4-97.5-51.4l7.513-21.65s97.4,52.2,108.428,19.943" transform="translate(-22.686 -253.969)" fill="#6e3dcc"/>
      <path id="Path_23" data-name="Path 23" d="M24.316,394.336c-25.5,2.08-35.431,50.717-7.54,47.79C43.764,439.3,53.84,391.924,24.316,394.336Z" transform="translate(0.001 -236.056)" fill="#6e3dcc"/>
      <path id="Path_24" data-name="Path 24" d="M12.711,460.394c-5.133,6.713,4.611,19.9,10.063,12.423C28.049,465.576,18.651,452.631,12.711,460.394Z" transform="translate(-6.743 -274.225)" fill="#9472e8"/>
      <path id="Path_25" data-name="Path 25" d="M26.9,400.663a20.948,20.948,0,0,1,4.448-.874c23.428-1.91,21.9,27.5,6.808,41.152,22.893-7.885,29.775-48.847,2.265-46.6A22.4,22.4,0,0,0,26.9,400.663Z" transform="translate(-16.109 -236.056)" fill="#4b2fa5"/>
      <path id="Path_26" data-name="Path 26" d="M247.271,879.429c-19.963-27.645-97.89,50.662-97.89,50.662l-13.508-18.52S234.36,861.451,214.133,834" transform="translate(-81.354 -499.356)" fill="#4b2fa5"/>
      <path id="Path_27" data-name="Path 27" d="M109.517,993.809c-12.843,22.11,21.475,58.005,34.99,33.457C157.581,1003.516,124.381,968.217,109.517,993.809Z" transform="translate(-63.881 -589.709)" fill="#4b2fa5"/>
      <path id="Path_28" data-name="Path 28" d="M144.224,1073.463c2.59,8.041,18.994,7.573,15.956-1.172C157.237,1063.838,141.227,1064.163,144.224,1073.463Z" transform="translate(-86.131 -638.393)" fill="#9472e8"/>
      <path id="Path_29" data-name="Path 29" d="M107.028,1008.51a20.414,20.414,0,0,1,1.824-4.152c11.792-20.3,35.105-2.276,37.709,17.9,6.584-23.282-23.164-52.3-37.017-28.451A22.325,22.325,0,0,0,107.028,1008.51Z" transform="translate(-63.908 -589.704)" fill="#371ca5"/>
      <path id="Path_30" data-name="Path 30" d="M659.7,155.77c25.422,5.683,30.216-78.483,30.216-78.483l17.108,3.746s-30.833,78.463-5.357,83.909" transform="translate(-394.993 -46.276)" fill="#6e3dcc"/>
      <path id="Path_31" data-name="Path 31" d="M744.789,63.466c-3.879-19.13-41.683-22.259-36.95-1.4C712.417,82.244,749.279,85.611,744.789,63.466Z" transform="translate(-423.574 -28.574)" fill="#6e3dcc"/>
      <path id="Path_32" data-name="Path 32" d="M727.87,57.486c-5.554-3.279-14.688,5.29-8.517,8.745C725.32,69.571,734.3,61.286,727.87,57.486Z" transform="translate(-429.479 -33.981)" fill="#9472e8"/>
      <path id="Path_33" data-name="Path 33" d="M741.416,62.852a15.2,15.2,0,0,1,1.065,3.292c3.567,17.565-18.892,19.069-30.616,8.867,8.056,16.63,39.764,18.147,35.58-2.486A17.118,17.118,0,0,0,741.416,62.852Z" transform="translate(-426.229 -37.633)" fill="#4b2fa5"/>
      <path id="Path_34" data-name="Path 34" d="M955.22,413.507c14.26,21.785,76.428-35.211,76.428-35.211l9.656,14.6s-76.869,34.777-62.405,56.42" transform="translate(-571.938 -226.505)" fill="#4b2fa5"/>
      <path id="Path_35" data-name="Path 35" d="M1143.813,382.191c10.572-16.42-14.349-44.993-25.51-26.737C1107.5,373.107,1131.58,401.192,1143.813,382.191Z" transform="translate(-667.958 -209.306)" fill="#4b2fa5"/>
      <path id="Path_36" data-name="Path 36" d="M1146.422,363.883c-1.7-6.219-14.22-6.435-12.206.339C1136.155,370.772,1148.381,371.084,1146.422,363.883Z" transform="translate(-678.981 -215.06)" fill="#9472e8"/>
      <path id="Path_37" data-name="Path 37" d="M1146.262,385.42a15.547,15.547,0,0,1-1.539,3.1c-9.7,15.072-26.846.508-28.134-14.97-5.832,17.531,15.84,40.7,27.239,23A17.041,17.041,0,0,0,1146.262,385.42Z" transform="translate(-667.972 -223.664)" fill="#371ca5"/>
      <path id="Path_38" data-name="Path 38" d="M451.928,999.212c-21.482-14.727-57.286,61.609-57.286,61.609l-14.484-9.829s57.849-61.372,36.231-75.9" transform="translate(-227.619 -583.84)" fill="#4b2fa5"/>
      <path id="Path_39" data-name="Path 39" d="M358.65,1139.715c-3.526,19.2,30.392,36.153,33.776,15.031C395.695,1134.316,362.733,1117.49,358.65,1139.715Z" transform="translate(-214.588 -676.106)" fill="#4b2fa5"/>
      <path id="Path_40" data-name="Path 40" d="M399.691,1191.918c3.933,5.108,15.6.549,11.161-4.952C406.554,1181.649,395.134,1186,399.691,1191.918Z" transform="translate(-238.683 -709.261)" fill="#9472e8"/>
      <path id="Path_41" data-name="Path 41" d="M360.64,1150.927a15.621,15.621,0,0,1,.237-3.448c3.241-17.633,24.642-10.676,31.721,3.15-1.282-18.425-30.141-31.621-33.946-10.913A17.044,17.044,0,0,0,360.64,1150.927Z" transform="translate(-214.591 -676.107)" fill="#371ca5"/>
      <path id="Path_42" data-name="Path 42" d="M956.673,843.129c-11.229,23.485,69.817,46.971,69.817,46.971l-7.479,15.824s-69.661-47.574-80.673-23.987" transform="translate(-561.83 -504.824)" fill="#4b2fa5"/>
      <path id="Path_43" data-name="Path 43" d="M1115.494,968.624c19.536.5,31.043-35.6,9.629-35.665C1104.414,932.9,1092.887,968.041,1115.494,968.624Z" transform="translate(-660.504 -558.61)" fill="#4b2fa5"/>
      <path id="Path_44" data-name="Path 44" d="M1162.027,955.428c4.441-4.674-1.878-15.478-6.625-10.242C1150.8,950.246,1156.887,960.841,1162.027,955.428Z" transform="translate(-690.823 -565.093)" fill="#9472e8"/>
      <path id="Path_45" data-name="Path 45" d="M1126.281,965.633a16.06,16.06,0,0,1-3.445.3c-17.936-.461-14.382-22.659-1.8-31.79-18.024,4.119-26.595,34.649-5.533,35.191A17.083,17.083,0,0,0,1126.281,965.633Z" transform="translate(-660.509 -559.318)" fill="#371ca5"/>
      <path id="Path_46" data-name="Path 46" d="M246.073,312.078c18.146-18.669-51.135-66.784-51.135-66.784l12.138-12.606s50.81,67.3,68.779,48.461" transform="translate(-116.719 -139.322)" fill="#6e3dcc"/>
      <path id="Path_47" data-name="Path 47" d="M194.882,211.945c-18.343-6.713-40.794,23.838-20.526,30.72C193.966,249.324,216.12,219.708,194.882,211.945Z" transform="translate(-99.602 -126.329)" fill="#6e3dcc"/>
      <path id="Path_48" data-name="Path 48" d="M178.739,246.012c-5.7,3.008-3.173,15.268,3,11.821C187.717,254.5,185.344,242.523,178.739,246.012Z" transform="translate(-105.111 -146.922)" fill="#9472e8"/>
      <path id="Path_49" data-name="Path 49" d="M201.45,212.021a15.214,15.214,0,0,1,3.363.813c16.851,6.158,6.381,26.059-8.456,30.7,18.4,1.849,36.285-24.352,16.491-31.58A17.011,17.011,0,0,0,201.45,212.021Z" transform="translate(-117.569 -126.337)" fill="#4b2fa5"/>
      <path id="Path_50" data-name="Path 50" d="M161.742,735.411c-3.187-25.829-84.145-2.052-84.145-2.052L75.372,716s84.342,2.642,80.911-23.16" transform="translate(-45.129 -414.841)" fill="#6e3dcc"/>
      <path id="Path_51" data-name="Path 51" d="M55.139,725.476c-16.735,10.073-6.978,46.693,11.1,35.231C83.728,749.618,74.505,713.8,55.139,725.476Z" transform="translate(-27.852 -432.997)" fill="#6e3dcc"/>
      <path id="Path_52" data-name="Path 52" d="M60.225,786.833c-1.227,6.334,9.921,12.044,11.107,5.074C72.478,785.173,61.649,779.51,60.225,786.833Z" transform="translate(-36.003 -469.06)" fill="#9472e8"/>
      <path id="Path_53" data-name="Path 53" d="M50.327,734.391a15.433,15.433,0,0,1,2.746-2.107c15.359-9.26,24.323,11.367,18.648,25.822,12.965-13.162,3.743-43.5-14.3-32.63A17.034,17.034,0,0,0,50.327,734.391Z" transform="translate(-30.133 -432.998)" fill="#4b2fa5"/>
      <path id="Path_54" data-name="Path 54" d="M356.914,478.769c-3.235-.718-6.72-1.118-9.785.142a12.023,12.023,0,0,0-6.564,7.682,22.032,22.032,0,0,0-.285,10.324,38.729,38.729,0,0,0,24.527,29.013c13.081,4.7,32.522-3.746,27.327-20.22C387.842,492.093,369.893,481.668,356.914,478.769Z" transform="translate(-203.46 -286.26)" fill="#9472e8"/>
      <path id="Path_55" data-name="Path 55" d="M755.378,618.338c2.041-3.922,3.757-8.271,3.187-12.654-.6-4.6-3.723-8.617-7.656-11.082a29.333,29.333,0,0,0-13.223-3.922,51.7,51.7,0,0,0-45.86,21.6c-10.558,15.221-6.354,43.157,16.695,42.134C727.556,653.57,747.18,634.047,755.378,618.338Z" transform="translate(-410.945 -353.572)" fill="#9472e8"/>
      <path id="Path_56" data-name="Path 56" d="M369.767,703.663c-4.97-1.334-10.348-2.174-15.183-.427-5.079,1.842-8.863,6.4-10.673,11.482s-1.844,10.649-1.119,15.993A60.06,60.06,0,0,0,378.921,777.3c19.977,8.149,50.674-3.678,43.7-29.568C416.847,726.335,389.7,709,369.767,703.663Z" transform="translate(-204.982 -420.471)" fill="#9472e8"/>
      <path id="Path_57" data-name="Path 57" d="M503.188,620.4c-2.163,1.721-4.245,3.78-5.031,6.428a10.032,10.032,0,0,0,1.56,8.285,18.427,18.427,0,0,0,6.571,5.6,32.383,32.383,0,0,0,31.728-.732c9.907-6.036,14.6-23.086,1.153-28.342C528.054,607.29,511.874,613.488,503.188,620.4Z" transform="translate(-298.07 -365.351)" fill="#bd61f2"/>
      <path id="Path_58" data-name="Path 58" d="M598.819,801.7c.393,2.5,1.078,5.087,2.834,6.916a9.2,9.2,0,0,0,7.3,2.52,16.932,16.932,0,0,0,7.432-2.682,29.573,29.573,0,0,0,13.813-25.524c-.305-10.608-11.745-22.07-22.031-13.771C599.673,776.009,597.259,791.67,598.819,801.7Z" transform="translate(-358.277 -458.832)" fill="#bd61f2"/>
      <path id="Path_59" data-name="Path 59" d="M516.135,330.725c-6.557,1.219-13.277,3.333-17.766,8.589-4.706,5.507-6.218,13.866-5.14,21.738s4.509,15.316,8.68,22.009c15.895,25.518,43.839,41.477,70.658,40.359,28.087-1.172,56.1-35.441,31.925-65.768C584.515,332.6,542.432,325.841,516.135,330.725Z" transform="translate(-295.123 -197.136)" fill="#bd61f2"/>
      <g id="Group_1" data-name="Group 1" transform="translate(129.205 334.64)">
        <path id="Path_60" data-name="Path 60" d="M322.006,857.528a187.874,187.874,0,0,0,28.385,10.479L325.58,834C330.6,840.817,328.3,849.034,322.006,857.528Z" transform="translate(-322.006 -833.996)" fill="#6e3dcc"/>
      </g>
      <g id="Group_2" data-name="Group 2" transform="translate(86.776 93.806)">
        <path id="Path_61" data-name="Path 61" d="M901.707,328.983c-2.251,5.907-4.686,11.692-5.771,17.721a23.713,23.713,0,0,0-.163,8.982,15.946,15.946,0,0,0,1.573,4.207,17.548,17.548,0,0,0,2.862,3.651,13.914,13.914,0,0,1-3.682-3.1,14.276,14.276,0,0,1-2.285-4.362,18.923,18.923,0,0,1-.739-4.877,27.6,27.6,0,0,1,.434-4.864,38.886,38.886,0,0,1,2.984-9.138A49.677,49.677,0,0,1,901.707,328.983Z" transform="translate(-621.761 -290.784)" fill="#9472e8"/>
        <path id="Path_62" data-name="Path 62" d="M797.985,314.35a15.272,15.272,0,0,0,8.822,2.046,24.01,24.01,0,0,0,8.612-2.7,61.305,61.305,0,0,0,7.886-4.884c2.428-1.964,4.923-3.868,7.554-5.69-2.082,2.384-4.265,4.721-6.571,6.93a39.623,39.623,0,0,1-7.961,5.453,20.89,20.89,0,0,1-9.466,2.466,12.621,12.621,0,0,1-8.876-3.617Z" transform="translate(-564.57 -275.299)" fill="#9472e8"/>
        <path id="Path_63" data-name="Path 63" d="M1029.349,733.007c-2.665.711-5.3,1.409-7.879,2.168a47.351,47.351,0,0,0-7.459,2.838,20.3,20.3,0,0,0-6.266,4.552,15.631,15.631,0,0,0-3.573,7.011,12.264,12.264,0,0,1,2.333-8,17.694,17.694,0,0,1,6.6-5.379A35.547,35.547,0,0,1,1029.349,733.007Z" transform="translate(-688.008 -532.687)" fill="#9472e8"/>
        <path id="Path_64" data-name="Path 64" d="M1015.793,634.736a15.51,15.51,0,0,0,2.448,7.756,20.645,20.645,0,0,0,5.71,5.636,49.133,49.133,0,0,0,7.188,4.085c2.523,1.185,5.106,2.317,7.717,3.468a41.342,41.342,0,0,1-8.327-2.012,32.391,32.391,0,0,1-7.744-3.881,18.148,18.148,0,0,1-5.913-6.51A12.42,12.42,0,0,1,1015.793,634.736Z" transform="translate(-694.789 -473.854)" fill="#9472e8"/>
        <path id="Path_65" data-name="Path 65" d="M529.2,234.24c3.641,3.638,7.059,7.37,11.155,10.093a19.271,19.271,0,0,0,6.578,2.94,16.118,16.118,0,0,0,7.378-.163,12.031,12.031,0,0,1-7.615,1.727,16.614,16.614,0,0,1-7.466-2.818A31.534,31.534,0,0,1,529.2,234.24Z" transform="translate(-403.633 -234.057)" fill="#9472e8"/>
        <path id="Path_66" data-name="Path 66" d="M462.29,276.031a15.7,15.7,0,0,0,5.682-5.643,20.57,20.57,0,0,0,2.4-7.506,47.463,47.463,0,0,0,.366-8.115c-.081-2.737-.244-5.5-.4-8.3a36.437,36.437,0,0,1,2.041,16.7,17.858,17.858,0,0,1-3.092,8.081A12.357,12.357,0,0,1,462.29,276.031Z" transform="translate(-363.573 -241.375)" fill="#9472e8"/>
        <path id="Path_67" data-name="Path 67" d="M248.408,483.3c3.011.095,5.981.2,8.931.217a52.538,52.538,0,0,0,8.727-.589,21.771,21.771,0,0,0,8.042-2.723,15.407,15.407,0,0,0,5.771-6.34A12.655,12.655,0,0,1,275,481.513a19.075,19.075,0,0,1-8.612,3.414,35.289,35.289,0,0,1-9.134.169A46.7,46.7,0,0,1,248.408,483.3Z" transform="translate(-235.511 -377.533)" fill="#9472e8"/>
        <path id="Path_68" data-name="Path 68" d="M252.81,566.153a15.355,15.355,0,0,0-.6-8.528,21.509,21.509,0,0,0-4.618-7.113,52.365,52.365,0,0,0-6.476-5.853c-2.319-1.8-4.713-3.563-7.127-5.358a45.547,45.547,0,0,1,8.049,4.071,35.142,35.142,0,0,1,7.052,5.771,19.048,19.048,0,0,1,4.625,8.007A12.658,12.658,0,0,1,252.81,566.153Z" transform="translate(-226.879 -416.712)" fill="#9472e8"/>
        <path id="Path_69" data-name="Path 69" d="M356.846,937.028a15.166,15.166,0,0,0-8.693-4.742,26.342,26.342,0,0,0-9.927.61c-6.618,1.47-12.9,4.349-19.346,6.991a53.655,53.655,0,0,1,18.905-8.969,23.3,23.3,0,0,1,10.7-.169A13.255,13.255,0,0,1,356.846,937.028Z" transform="translate(-277.706 -650.761)" fill="#9472e8"/>
        <path id="Path_70" data-name="Path 70" d="M738.256,239.44c.651,4.5.943,8.928,2.177,13.06a16.909,16.909,0,0,0,2.712,5.677,12.44,12.44,0,0,0,5.133,3.854,9.31,9.31,0,0,1-6.313-2.8,14.14,14.14,0,0,1-3.479-6.151,24.94,24.94,0,0,1-.936-6.855A29.948,29.948,0,0,1,738.256,239.44Z" transform="translate(-528.385 -237.17)" fill="#9472e8"/>
        <path id="Path_71" data-name="Path 71" d="M659.7,249.473a12.468,12.468,0,0,0,6.116-1.294,16.47,16.47,0,0,0,4.76-3.841c2.821-3.1,4.93-6.869,7.391-10.554a27.7,27.7,0,0,1-2.183,6.279,23.992,23.992,0,0,1-3.7,5.636,13.813,13.813,0,0,1-5.662,3.929A9.243,9.243,0,0,1,659.7,249.473Z" transform="translate(-481.769 -233.784)" fill="#9472e8"/>
        <path id="Path_72" data-name="Path 72" d="M1020.327,494.563c-2.977,3.814-6.157,7.329-8.442,11.34a17.957,17.957,0,0,0-2.407,6.286,12.2,12.2,0,0,0,.963,6.74,9.542,9.542,0,0,1-2.536-6.876,15.254,15.254,0,0,1,2.217-7.16,27.844,27.844,0,0,1,4.543-5.785A33.175,33.175,0,0,1,1020.327,494.563Z" transform="translate(-690.256 -389.926)" fill="#9472e8"/>
        <path id="Path_73" data-name="Path 73" d="M955.22,465.645a11.879,11.879,0,0,0,6.218,3.658,19.208,19.208,0,0,0,7.174.014c4.862-.725,9.581-2.486,14.5-3.942a35.206,35.206,0,0,1-14.193,5.948,16.5,16.5,0,0,1-7.92-.508A9.791,9.791,0,0,1,955.22,465.645Z" transform="translate(-658.715 -372.449)" fill="#9472e8"/>
        <path id="Path_74" data-name="Path 74" d="M462.662,1007.578c2.2-5.568,4.692-10.94,6.1-16.569a24.77,24.77,0,0,0,.882-8.454,11.74,11.74,0,0,0-3.852-7.458,10.4,10.4,0,0,1,5.418,7.2,21.049,21.049,0,0,1-.481,9.206A46.61,46.61,0,0,1,462.662,1007.578Z" transform="translate(-363.795 -677.646)" fill="#9472e8"/>
        <path id="Path_75" data-name="Path 75" d="M518.023,1031.369a11.807,11.807,0,0,0-7.778-.935,22.135,22.135,0,0,0-7.12,3.34c-4.482,2.967-8.381,6.842-12.579,10.513a40.928,40.928,0,0,1,11.453-12.2,18.747,18.747,0,0,1,7.988-3.2A10.14,10.14,0,0,1,518.023,1031.369Z" transform="translate(-380.491 -709.802)" fill="#9472e8"/>
        <path id="Path_76" data-name="Path 76" d="M824.844,994.626c-4.042-5.717-7.785-11.563-12.4-16.6a30.86,30.86,0,0,0-7.71-6.435,11.918,11.918,0,0,0-9.744-.867,10.581,10.581,0,0,1,5.065-1.6,11.675,11.675,0,0,1,2.74.2,18.3,18.3,0,0,1,2.611.833,26.232,26.232,0,0,1,8.537,6.5A61.235,61.235,0,0,1,824.844,994.626Z" transform="translate(-562.779 -674.049)" fill="#9472e8"/>
        <path id="Path_77" data-name="Path 77" d="M882.431,925.244a11.844,11.844,0,0,0-5.228,7.743,28.458,28.458,0,0,0,.054,9.558c.929,6.435,3.018,12.721,4.8,19.157a56.071,56.071,0,0,1-6.808-18.865,24.438,24.438,0,0,1,.42-10.242A10.882,10.882,0,0,1,882.431,925.244Z" transform="translate(-610.629 -647.796)" fill="#9472e8"/>
        <path id="Path_78" data-name="Path 78" d="M613.969,1059.739c-1-2.709-1.98-5.385-3.018-8.014a50.477,50.477,0,0,0-3.675-7.519,20.943,20.943,0,0,0-5.337-6.13,15.56,15.56,0,0,0-7.7-2.933,12.5,12.5,0,0,1,8.564,1.612,18.288,18.288,0,0,1,6.2,6.395A38.407,38.407,0,0,1,613.969,1059.739Z" transform="translate(-442.579 -713.488)" fill="#9472e8"/>
        <path id="Path_79" data-name="Path 79" d="M707.311,1031.094a15.575,15.575,0,0,0-7.432,3.333,20.643,20.643,0,0,0-4.943,6.32,49.515,49.515,0,0,0-3.221,7.614c-.888,2.642-1.716,5.338-2.563,8.061a41.394,41.394,0,0,1,1.038-8.495,32.171,32.171,0,0,1,2.963-8.142,18.14,18.14,0,0,1,5.791-6.625A12.485,12.485,0,0,1,707.311,1031.094Z" transform="translate(-499.406 -711.127)" fill="#9472e8"/>
        <path id="Path_80" data-name="Path 80" d="M956.435,922.684c-3.506.271-6.862.237-10.016.989a13.45,13.45,0,0,0-8.083,5.08,8.4,8.4,0,0,1,2.712-4.606,11.224,11.224,0,0,1,4.916-2.445,16.624,16.624,0,0,1,5.357-.284A17.907,17.907,0,0,1,956.435,922.684Z" transform="translate(-648.606 -645.446)" fill="#9472e8"/>
        <path id="Path_81" data-name="Path 81" d="M981.372,843.129a13.233,13.233,0,0,0-.2,5.555,15.344,15.344,0,0,0,2,4.992c1.878,3.163,4.523,5.9,7.025,8.948A22.411,22.411,0,0,1,985.3,859.3a20.094,20.094,0,0,1-3.879-4.586,12.43,12.43,0,0,1-1.831-5.859A8.813,8.813,0,0,1,981.372,843.129Z" transform="translate(-673.305 -598.63)" fill="#9472e8"/>
        <path id="Path_82" data-name="Path 82" d="M333.413,343.822c4.292,1.951,8.341,4.18,12.653,5.426a17.4,17.4,0,0,0,6.5.833,12.227,12.227,0,0,0,6.2-2.391,9.464,9.464,0,0,1-5.96,3.956,14.821,14.821,0,0,1-7.31-.454,26.714,26.714,0,0,1-6.51-3A31.954,31.954,0,0,1,333.413,343.822Z" transform="translate(-286.408 -299.669)" fill="#9472e8"/>
        <path id="Path_83" data-name="Path 83" d="M316.863,395.339a12.575,12.575,0,0,0,2.1-5.839,16.323,16.323,0,0,0-.753-6.015c-1.146-3.99-3.221-7.736-5.038-11.739a27.486,27.486,0,0,1,4.164,5.114,23.816,23.816,0,0,1,2.828,6.063,13.683,13.683,0,0,1,.353,6.828A9.191,9.191,0,0,1,316.863,395.339Z" transform="translate(-274.286 -316.388)" fill="#9472e8"/>
        <path id="Path_84" data-name="Path 84" d="M216.265,711.574c5.255-2.066,10.551-3.78,15.311-6.442a22.6,22.6,0,0,0,6.327-4.857,11.777,11.777,0,0,0,2.74-7.431,10.129,10.129,0,0,1-1.471,8.379,19.212,19.212,0,0,1-6.611,5.683A42.049,42.049,0,0,1,216.265,711.574Z" transform="translate(-216.265 -508.647)" fill="#9472e8"/>
        <path id="Path_85" data-name="Path 85" d="M249.289,780.1a11.8,11.8,0,0,0-4.414-6.408,22.012,22.012,0,0,0-7.167-3.123c-5.16-1.4-10.619-1.761-16.118-2.472a40.463,40.463,0,0,1,16.641.515,18.665,18.665,0,0,1,7.642,3.861A10.085,10.085,0,0,1,249.289,780.1Z" transform="translate(-219.452 -553.331)" fill="#9472e8"/>
        <path id="Path_86" data-name="Path 86" d="M291.35,870.609c4.835-5.473,9.832-10.737,13.589-16.786a28.27,28.27,0,0,0,4.082-9.626,15.109,15.109,0,0,0-1.8-10.2,13.442,13.442,0,0,1,3.37,10.418,25.011,25.011,0,0,1-3.933,10.479A58.574,58.574,0,0,1,291.35,870.609Z" transform="translate(-261.222 -593.161)" fill="#9472e8"/>
      </g>
      <path id="Path_87" data-name="Path 87" d="M689.957,1309.149c8.1,2.4,16.98-11.387,8.036-13.819C689.347,1292.987,680.579,1306.365,689.957,1309.149Z" transform="translate(-410.696 -775.416)" fill="#9472e8"/>
    </g>
  </g>
</svg>
